# xmcd
#
# Track frame offsets:
#	150
#	13471
#	31945
#	49496
#	67204
#	88830
#	109045
#	124400
#	143518
#	164519
#	181602
#	200407
#	215762
#	234255
#	249610
#	265990
#	284105
#	299934
#	315134
#
# Disc length: 4450 seconds
#
# Revision: 3
# Processed by: cddbd v1.5.2PL0 Copyright (c) Steve Scherf et al.
# Submitted via: audiograbber 1.83.01
#
DISCID=31116013
DTITLE=Shania Twain  - üp
DYEAR=2002
DGENRE=Country
TTITLE0=Shania Twain  - Up!
TTITLE1=Shania Twain  - I'm Gonna Getcha Good!
TTITLE2=Shania Twain - She's Not Just A Pretty Face
TTITLE3=Shania Twain  - Juanita
TTITLE4=Shania Twain  - Forever And For Always
TTITLE5=Shania Twain  - Ain't No Particular Way
TTITLE6=Shania Twain - It Only Hurts When I'm Breathing
TTITLE7=Shania Twain - Nah!
TTITLE8=Shania Twain  - (Wanna Get To Know You) That Good!
TTITLE9=Shania Twain  - C'est La Vie
TTITLE10=Shania Twain  - I'm Jealous
TTITLE11=Shania Twain - Ching!
TTITLE12=Shania Twain - Thank You Baby! (For Makin' Someday Come So Soon)
TTITLE13=Shania Twain  - Waiter! Bring Me Water!
TTITLE14=Shania Twain  - What A Way To Wanna Be
TTITLE15=Shania Twain - I Ain't Goin' Down
TTITLE16=Shania Twain  - I'm Not In The Mood (To Say No)!
TTITLE17=Shania Twain - In My Car (I'll Be The Driver)
TTITLE18=Shania Twain  - When You Kiss Me
EXTD=YEAR: 2002
EXTT0=
EXTT1=
EXTT2=
EXTT3=
EXTT4=
EXTT5=
EXTT6=
EXTT7=
EXTT8=
EXTT9=
EXTT10=
EXTT11=
EXTT12=
EXTT13=
EXTT14=
EXTT15=
EXTT16=
EXTT17=
EXTT18=
PLAYORDER=
